<!-- icon666.com - MILLIONS OF FREE VECTOR ICONS --><svg viewBox="0 0 512 512" xmlns="http://www.w3.org/2000/svg"><path d="m504.5 7.5h-30l-30 278.5 30 137.070312 30-8.570312zm0 0" fill="#d6faff"></path><path d="m154.75 7.5v497h259.75l20-70 40-11.429688v-415.570312zm0 0" fill="#fff"></path><path d="m414.5 504.5 90-90h-90zm0 0" fill="#d6faff"></path><path d="m14.089844 466.089844c-8.785156 8.789062-8.785156 23.03125 0 31.820312 8.789062 8.785156 23.03125 8.785156 31.820312 0l90.765625-90.765625 5.304688-37.125-37.125 5.304688zm0 0" fill="#41494e"></path><path d="m104.851562 375.320312 66.566407-66.5625 31.820312 31.820313-66.566406 66.5625zm0 0" fill="#bddbe0"></path><path d="m256 121v270c74.558594 0 135-60.441406 135-135s-60.441406-135-135-135zm0 0" fill="#8b9ea4"></path><path d="m361 256c0-74.558594-47.011719-135-105-135-74.558594 0-135 60.441406-135 135s60.441406 135 135 135c57.988281 0 105-60.441406 105-135zm0 0" fill="#a3bbc0"></path><path d="m256 154.75v202.5c55.917969 0 101.25-45.332031 101.25-101.25s-45.332031-101.25-101.25-101.25zm0 0" fill="#adf5ff"></path><path d="m327.25 256c0-55.917969-31.898438-101.25-71.25-101.25-55.917969 0-101.25 45.332031-101.25 101.25s45.332031 101.25 101.25 101.25c39.351562 0 71.25-45.332031 71.25-101.25zm0 0" fill="#d6faff"></path><path d="m510.414062 419.097656c.109376-.136718.21875-.28125.320313-.425781.027344-.046875.054687-.09375.082031-.140625.105469-.160156.203125-.320312.296875-.492188.015625-.03125.027344-.0625.042969-.09375.097656-.1875.191406-.375.269531-.570312.007813-.019531.015625-.039062.023438-.058594.082031-.207031.160156-.414062.226562-.628906.003907-.023438.007813-.046875.015625-.070312.0625-.210938.117188-.421876.160156-.640626.011719-.058593.015626-.121093.027344-.183593.03125-.179688.0625-.359375.082032-.542969.023437-.246094.039062-.496094.039062-.75v-407c0-4.144531-3.359375-7.5-7.5-7.5h-349.75c-4.140625 0-7.5 3.355469-7.5 7.5v156.527344c-21.039062 24.839844-33.75 56.945312-33.75 91.972656 0 28.453125 8.390625 54.984375 22.816406 77.257812l-36.761718 36.757813c-.003907.007813-90.769532 90.769531-90.769532 90.769531-5.664062 5.667969-8.785156 13.199219-8.785156 21.214844s3.121094 15.546875 8.785156 21.214844c5.851563 5.847656 13.53125 8.769531 21.214844 8.769531s15.363281-2.921875 21.214844-8.769531l90.761718-90.761719c.003907-.007813 36.765626-36.769531 36.765626-36.769531 22.273437 14.429687 48.804687 22.816406 77.257812 22.816406 40.890625 0 77.808594-17.320312 103.820312-45h84.679688c4.144531 0 7.5-3.355469 7.5-7.5s-3.355469-7.5-7.5-7.5h-72.371094c3.410156-4.789062 6.53125-9.800781 9.339844-15h63.03125c4.144531 0 7.5-3.355469 7.5-7.5s-3.355469-7.5-7.5-7.5h-56.023438c1.9375-4.875 3.609376-9.882812 5.007813-15h51.015625c4.144531 0 7.5-3.355469 7.5-7.5s-3.355469-7.5-7.5-7.5h-47.78125c.785156-4.921875 1.320312-9.925781 1.585938-15h46.195312c4.144531 0 7.5-3.355469 7.5-7.5s-3.355469-7.5-7.5-7.5h-46.195312c-.265626-5.074219-.800782-10.078125-1.585938-15h47.78125c4.144531 0 7.5-3.355469 7.5-7.5s-3.355469-7.5-7.5-7.5h-51.015625c-1.398437-5.117188-3.070313-10.125-5.007813-15h56.023438c4.144531 0 7.5-3.355469 7.5-7.5s-3.355469-7.5-7.5-7.5h-63.03125c-2.808594-5.199219-5.929688-10.210938-9.339844-15h72.371094c4.144531 0 7.5-3.355469 7.5-7.5s-3.355469-7.5-7.5-7.5h-84.679688c-26.011718-27.679688-62.929687-45-103.820312-45-35.867188 0-68.675781 13.324219-93.75 35.273438v-133.773438h334.75v392h-82.5c-4.144531 0-7.5 3.355469-7.5 7.5v82.5h-244.75v-65.503906c0-4.140625-3.359375-7.5-7.5-7.5s-7.5 3.359375-7.5 7.5v73.003906c0 4.144531 3.359375 7.5 7.5 7.5h259.75c.25 0 .5-.011719.75-.039062.1875-.019532.371094-.050782.558594-.082032.054687-.011718.113281-.015625.167968-.027344.21875-.042968.429688-.097656.640626-.160156.023437-.007812.046874-.011718.066406-.015625.214844-.066406.421875-.144531.628906-.226562.019531-.007813.042969-.011719.0625-.023438.195312-.078125.382812-.171875.570312-.269531.03125-.015625.0625-.027344.09375-.042969.171876-.09375.335938-.195312.496094-.296875.046875-.03125.09375-.054687.136719-.082031.148437-.101563.289063-.210937.429687-.320313.050782-.039062.109376-.074218.160157-.117187.144531-.121094.285156-.25.421875-.382813.039062-.039062.082031-.070312.121094-.109374l90-90c.039062-.039063.070312-.082032.109374-.121094.132813-.136719.261719-.277344.382813-.421875.042969-.054688.078125-.109375.117187-.164063zm-469.808593 73.507813c-5.847657 5.847656-15.363281 5.847656-21.210938 0-5.847656-5.847657-5.847656-15.363281 0-21.210938l85.460938-85.464843 21.214843 21.214843zm96.070312-96.070313-21.210937-21.210937 29.773437-29.777344c6.3125 7.789063 13.425781 14.902344 21.214844 21.214844zm119.324219-268.035156c70.304688 0 127.5 57.195312 127.5 127.5s-57.195312 127.5-127.5 127.5-127.5-57.195312-127.5-127.5 57.195312-127.5 127.5-127.5zm230.394531 293.5-64.394531 64.394531v-64.394531zm0 0"></path><path d="m256 364.75c59.964844 0 108.75-48.785156 108.75-108.75s-48.785156-108.75-108.75-108.75c-23.480469 0-45.839844 7.367188-64.664062 21.3125-3.328126 2.464844-4.027344 7.160156-1.5625 10.488281 2.464843 3.328125 7.164062 4.027344 10.492187 1.5625 16.21875-12.011719 35.492187-18.363281 55.734375-18.363281 51.695312 0 93.75 42.058594 93.75 93.75 0 51.695312-42.054688 93.75-93.75 93.75s-93.75-42.054688-93.75-93.75c0-20.242188 6.351562-39.515625 18.363281-55.734375 2.464844-3.328125 1.769531-8.023437-1.5625-10.488281-3.328125-2.46875-8.023437-1.765625-10.488281 1.5625-13.945312 18.820312-21.3125 41.179687-21.3125 64.660156 0 59.964844 48.785156 108.75 108.75 108.75zm0 0"></path><path d="m214.75 263.5h112.5c4.144531 0 7.5-3.355469 7.5-7.5s-3.355469-7.5-7.5-7.5h-112.5c-4.140625 0-7.5 3.355469-7.5 7.5s3.359375 7.5 7.5 7.5zm0 0"></path><path d="m214.75 233.5h105.875c4.144531 0 7.5-3.355469 7.5-7.5s-3.355469-7.5-7.5-7.5h-105.875c-4.140625 0-7.5 3.355469-7.5 7.5s3.359375 7.5 7.5 7.5zm0 0"></path><path d="m214.75 293.5h105.875c4.144531 0 7.5-3.355469 7.5-7.5s-3.355469-7.5-7.5-7.5h-105.875c-4.140625 0-7.5 3.355469-7.5 7.5s3.359375 7.5 7.5 7.5zm0 0"></path></svg>