<!-- icon666.com - MILLIONS OF FREE VECTOR ICONS --><svg version="1.1" id="Capa_1" xmlns="http://www.w3.org/2000/svg" xmlns:xlink="http://www.w3.org/1999/xlink" x="0px" y="0px" viewBox="0 0 512 512" style="enable-background:new 0 0 512 512;" xml:space="preserve"><path style="fill:#455A64;" d="M364,508H60c-22.4,0-40-17.6-40-40V132c0-22.4,17.6-40,40-40h304c22.4,0,40,17.6,40,40v336 C404,490.4,386.4,508,364,508z"></path><path style="fill:#37474F;" d="M364,512H60c-24.672,0-44-19.328-44-44V132c0-24.672,19.328-44,44-44h304c24.672,0,44,19.328,44,44 v336C408,492.672,388.672,512,364,512z M60,96c-20.184,0-36,15.816-36,36v336c0,20.184,15.816,36,36,36h304 c20.184,0,36-15.816,36-36V132c0-20.184-15.816-36-36-36H60z"></path><path style="fill:#78909C;" d="M364,476H60c-22.4,0-40-17.6-40-40V100c0-22.4,17.6-40,40-40h304c22.4,0,40,17.6,40,40v336 C404,458.4,386.4,476,364,476z"></path><path style="fill:#37474F;" d="M364,480H60c-24.672,0-44-19.328-44-44V100c0-24.672,19.328-44,44-44h304c24.672,0,44,19.328,44,44 v336C408,460.672,388.672,480,364,480z M60,64c-20.184,0-36,15.816-36,36v336c0,20.184,15.816,36,36,36h304 c20.184,0,36-15.816,36-36V100c0-20.184-15.816-36-36-36H60z"></path><path style="fill:#ECEFF1;" d="M352,444H72c-11.2,0-20-8.8-20-20V112c0-11.2,8.8-20,20-20h280c11.2,0,20,8.8,20,20v312 C372,435.2,363.2,444,352,444z"></path><path style="fill:#37474F;" d="M352,448H72c-13.456,0-24-10.536-24-24V112c0-13.456,10.544-24,24-24h280c13.464,0,24,10.544,24,24 v312C376,437.464,365.464,448,352,448z M72,96c-8.976,0-16,7.024-16,16v312c0,8.968,7.024,16,16,16h280c8.968,0,16-7.032,16-16V112 c0-8.976-7.032-16-16-16H72z"></path><path style="fill:#FFFFFF;" d="M68,148c-2.208,0-4-1.792-4-4v-32c0-4.64,3.36-8,8-8h32c2.208,0,4,1.792,4,4s-1.792,4-4,4H72v32 C72,146.208,70.208,148,68,148z"></path><path style="fill:#FFCA28;" d="M252,44c0-22.4-17.6-40-40-40s-40,17.6-40,40h-24c-4.8,0-8,3.2-8,8v48c0,4.8,3.2,8,8,8h128 c4.8,0,8-3.2,8-8V52c0-4.8-3.2-8-8-8H252z M212,60c-8.8,0-16-7.2-16-16s7.2-16,16-16s16,7.2,16,16S220.8,60,212,60z"></path><g><path style="fill:#37474F;" d="M276,112H148c-7.064,0-12-4.936-12-12V52c0-7.064,4.936-12,12-12h20.168 C170.128,17.272,188.672,0,212,0s41.864,17.272,43.832,40H276c6.952,0,12,5.048,12,12v48C288,106.952,282.952,112,276,112z M148,48 c-2.576,0-4,1.424-4,4v48c0,2.576,1.424,4,4,4h128c2.576,0,4-1.424,4-4V52c0-2.576-1.424-4-4-4h-24c-2.208,0-4-1.792-4-4 c0-20.184-15.816-36-36-36s-36,15.816-36,36c0,2.208-1.792,4-4,4H148z M256,44h0.08H256z M212,64c-11.024,0-20-8.976-20-20 s8.976-20,20-20s20,8.976,20,20S223.024,64,212,64z M212,32c-6.616,0-12,5.384-12,12s5.384,12,12,12s12-5.384,12-12 S218.616,32,212,32z"></path><path style="fill:#37474F;" d="M292,176h-88c-2.208,0-4-1.792-4-4s1.792-4,4-4h88c2.208,0,4,1.792,4,4S294.208,176,292,176z"></path><path style="fill:#37474F;" d="M276,280h-72c-2.208,0-4-1.792-4-4s1.792-4,4-4h72c2.208,0,4,1.792,4,4S278.208,280,276,280z"></path><path style="fill:#37474F;" d="M144,212h-32c-13.456,0-24-10.544-24-24v-32c0-13.456,10.544-24,24-24h32c13.456,0,24,10.544,24,24 v32C168,201.456,157.456,212,144,212z M112,140c-8.976,0-16,7.024-16,16v32c0,8.976,7.024,16,16,16h32c8.976,0,16-7.024,16-16v-32 c0-8.976-7.024-16-16-16H112z"></path><path style="fill:#37474F;" d="M144,308h-32c-13.456,0-24-10.536-24-24v-32c0-13.456,10.544-24,24-24h32c13.456,0,24,10.544,24,24 v32C168,297.464,157.456,308,144,308z M112,236c-8.976,0-16,7.024-16,16v32c0,8.968,7.024,16,16,16h32c8.976,0,16-7.032,16-16v-32 c0-8.976-7.024-16-16-16H112z"></path><path style="fill:#37474F;" d="M144,404h-32c-13.456,0-24-10.536-24-24v-32c0-13.464,10.544-24,24-24h32c13.456,0,24,10.536,24,24 v32C168,393.464,157.456,404,144,404z M112,332c-8.976,0-16,7.032-16,16v32c0,8.968,7.024,16,16,16h32c8.976,0,16-7.032,16-16v-32 c0-8.968-7.024-16-16-16H112z"></path></g><path style="fill:#B0BEC5;" d="M368,424V252c-72.8,2.4-132,62.4-132,136c0,18.4,4,36,10.4,52H352C360.8,440,368,432.8,368,424z"></path><path style="fill:#37474F;" d="M364,480h-92c8.8,9.6,18.4,17.6,29.6,24H364c20,0,36-16,36-36v-6.4C392,472.8,379.2,480,364,480z"></path><path style="fill:#455A64;" d="M400,436V255.2c-8-1.6-16-2.4-24-2.4V424c0,13.6-10.4,24-24,24H250.4c4,8.8,9.6,16.8,15.2,24H364 C384,472,400,456,400,436z"></path><circle style="fill:#9CCC65;" cx="372" cy="388" r="120"></circle><path style="fill:#37474F;" d="M372,512c-68.376,0-124-55.624-124-124s55.624-124,124-124s124,55.624,124,124S440.376,512,372,512z M372,272c-63.96,0-116,52.04-116,116s52.04,116,116,116s116-52.04,116-116S435.96,272,372,272z"></path><path style="fill:#C5E1A5;" d="M268,392c-2.208,0-4-1.792-4-4c0-59.552,48.448-108,108-108c2.208,0,4,1.792,4,4s-1.792,4-4,4 c-55.144,0-100,44.856-100,100C272,390.208,270.208,392,268,392z"></path><path style="fill:#ECEFF1;" d="M302.4,397.6l39.2,39.2c4.8,4.8,12,4.8,16.8,0l82.4-82.4c4.8-4.8,4.8-12,0-16.8s-12-4.8-16.8,0 l-73.6,73.6L320,380.8c-4.8-4.8-12-4.8-16.8,0C298.4,385.6,298.4,393.6,302.4,397.6z"></path><path style="fill:#37474F;" d="M350,444.4c-4.168,0-8.16-1.696-11.224-4.776l-39.2-39.192l0,0 c-5.768-5.768-5.392-16.264,0.808-22.464c6.408-6.408,16.048-6.408,22.456,0l27.568,27.576l70.776-70.776 c6.144-6.16,16.312-6.16,22.456,0c3.08,3.072,4.776,7.064,4.776,11.224s-1.696,8.16-4.776,11.224l-82.4,82.4 C358.16,442.704,354.168,444.4,350,444.4z M305.224,394.776l39.2,39.192c3.144,3.144,8,3.144,11.144,0l82.4-82.4 c1.568-1.568,2.432-3.544,2.432-5.568s-0.856-4-2.432-5.568c-3.144-3.144-8-3.144-11.144,0l-73.6,73.6 c-0.744,0.752-1.76,1.168-2.824,1.168l0,0c-1.064,0-2.08-0.424-2.832-1.168l-30.4-30.408c-3.232-3.232-7.904-3.232-11.144,0 C302.72,386.936,302.88,392.432,305.224,394.776L305.224,394.776z"></path></svg>