<!-- icon666.com - MILLIONS OF FREE VECTOR ICONS --><svg version="1.1" id="Capa_1" xmlns="http://www.w3.org/2000/svg" xmlns:xlink="http://www.w3.org/1999/xlink" x="0px" y="0px" viewBox="0 0 512 512" style="enable-background:new 0 0 512 512;" xml:space="preserve"><path style="fill:#1689FC;" d="M330.998,75.998v119.997L226,300.994h-83.697l-55.8,55.498c-4.199,4.501-10.8,5.7-16.199,3.3 c-5.7-2.399-9.3-7.798-9.3-13.799v-46.499c-34.199-6.901-60.999-37.201-60.999-73.498V75.998C0.006,34.599,34.605,0,76.004,0 h179.996C297.399,0,330.998,34.599,330.998,75.998z"></path><path style="fill:#136EF1;" d="M330.998,75.998v119.997L226,300.994h-59.999V0H256C297.399,0,330.998,34.599,330.998,75.998z"></path><g><path style="fill:#CAE8F9;" d="M181.001,225.995c0,8.399-6.599,15-15,15s-15-6.601-15-15c0-8.401,6.599-15,15-15 S181.001,217.594,181.001,225.995z"></path><path style="fill:#CAE8F9;" d="M211,105.998c0,14.099-6.599,27.598-17.999,35.999c-7.5,5.7-12.001,14.7-12.001,23.999 c0,8.399-6.599,15-15,15s-15-6.601-15-15c0-14.7,5.4-28.8,15-39.599c2.701-3.001,5.7-6,9-8.401c3.9-2.999,6-7.2,6-11.999 c0-8.401-6.599-15-15-15s-15,6.599-15,15c0,8.399-6.599,15-15,15s-15-6.601-15-15c0-24.9,20.099-44.999,44.999-44.999 S211,81.097,211,105.998z"></path></g><g><path style="fill:#B7E0F6;" d="M181.001,225.995c0,8.399-6.599,15-15,15v-29.999C174.402,210.995,181.001,217.594,181.001,225.995z "></path><path style="fill:#B7E0F6;" d="M211,105.998c0,14.099-6.599,27.598-17.999,35.999c-7.5,5.7-12.001,14.7-12.001,23.999 c0,8.399-6.599,15-15,15v-54.599c2.701-3.001,5.7-6,9-8.401c3.9-2.999,6-7.2,6-11.999c0-8.401-6.599-15-15-15V60.999 C190.902,60.999,211,81.097,211,105.998z"></path></g><path style="fill:#32D736;" d="M435.996,180.996H285.999c-41.399,0-74.998,33.599-74.998,74.998v119.997 c0,41.399,33.599,74.998,74.998,74.998h15v45.999c0,6,3.6,11.4,9.3,13.799c5.4,2.401,12.001,1.201,16.199-3.3l34.5-35.199 l21.301-21.299h53.698c41.399,0,75.998-33.599,75.998-74.998V255.995C511.994,214.595,477.395,180.996,435.996,180.996z"></path><path style="fill:#10BB67;" d="M511.994,255.995v119.997c0,41.399-34.599,74.998-75.998,74.998h-53.698l-21.301,21.299V180.996 h74.998C477.395,180.996,511.994,214.595,511.994,255.995z"></path><path style="fill:#CAE8F9;" d="M446.495,296.493l-85.498,85.499l-4.501,4.499c-2.699,3.001-6.599,4.501-10.499,4.501 s-7.8-1.5-10.499-4.501l-29.999-29.999c-6-5.7-6-15.3,0-21c5.7-5.999,15.298-5.999,20.999,0l19.501,19.2l15-15l64.5-64.199 c5.7-5.999,15.298-5.999,20.999,0C452.495,281.193,452.495,290.793,446.495,296.493z"></path><path style="fill:#B7E0F6;" d="M446.495,296.493l-85.498,85.499v-42.3l64.5-64.199c5.7-5.999,15.298-5.999,20.999,0 C452.495,281.193,452.495,290.793,446.495,296.493z"></path></svg>